PathFileType	4	(X/Y/Z)	c:/Users/goper/Files/vsCode/490R/osim_files/C05/C05_ROM.trc
DataRate	CameraRate	NumFrames	NumMarkers	Units                	OrigDataRate	OrigDataStartFrame	OrigNumFrames
250.00	250.00	6	36	mm	250.0	417	3332
                Frame#	Time	LPSIS			LASIS			LTH1			LTH2			LTH3			LTH4			LLFE			LMFE			LSH1			LSH2			LSH3			LSH4			LLMAL			LMMAL			LCAL			LMTP5			LTOE			LMTP1			RPSIS			RASIS			RTH1			RTH2			RTH3			RTH4			RLFE			RMFE			RSH1			RSH2			RSH3			RSH4			RLMAL			RMMAL			RCAL			RMTP1			RTOE			RMTP5		
		X1	Y1	Z1	X2	Y2	Z2	X3	Y3	Z3	X4	Y4	Z4	X5	Y5	Z5	X6	Y6	Z6	X7	Y7	Z7	X8	Y8	Z8	X9	Y9	Z9	X10	Y10	Z10	X11	Y11	Z11	X12	Y12	Z12	X13	Y13	Z13	X14	Y14	Z14	X15	Y15	Z15	X16	Y16	Z16	X17	Y17	Z17	X18	Y18	Z18	X19	Y19	Z19	X20	Y20	Z20	X21	Y21	Z21	X22	Y22	Z22	X23	Y23	Z23	X24	Y24	Z24	X25	Y25	Z25	X26	Y26	Z26	X27	Y27	Z27	X28	Y28	Z28	X29	Y29	Z29	X30	Y30	Z30	X31	Y31	Z31	X32	Y32	Z32	X33	Y33	Z33	X34	Y34	Z34	X35	Y35	Z35	X36	Y36	Z36

417	1.66400	-426.59854	1064.55627	500.92981	-233.45959	997.97760	449.13068	-373.42139	711.12158	359.68295	-367.83783	648.76929	353.55316	-296.72366	711.86487	354.02405	-300.72363	650.67163	349.31207	-323.63052	542.40637	345.63669	-325.64584	508.93661	461.56140	-416.56470	371.93384	311.08301	-410.15479	328.29953	305.64297	-354.57449	377.08084	292.85251	-358.40594	333.43622	291.03305	-360.80728	96.47910	282.88791	-330.47260	107.34781	365.86890	-416.39575	68.53478	332.81216	-221.88901	41.37865	244.80766	-182.17070	67.66600	302.58307	-193.25552	47.05632	350.96255	-424.56000	1077.85913	607.97125	-242.88046	1023.17712	679.66180	-389.19589	704.25958	735.67590	-385.06677	641.82300	727.54718	-315.17447	700.21405	750.54565	-321.93524	638.26068	740.63971	-333.98233	529.74683	711.10742	-341.40787	511.15811	600.52130	-414.11209	374.68103	714.99469	-407.61963	327.29434	708.81543	-353.09216	373.75314	717.09998	-354.74841	327.69452	710.32391	-367.99326	92.28040	654.46875	-346.89954	112.68450	573.84003	-428.71988	67.74945	600.25037	-212.94638	44.74161	568.22284	-192.32861	67.32475	616.20917	-238.70078	33.43943	680.23145
418	1.66800	-426.07523	1064.33789	501.56012	-232.79913	997.85040	450.03818	-372.90686	711.10199	360.27414	-367.28204	648.75262	354.12460	-296.14291	711.73914	354.67886	-300.39868	650.45831	349.97571	-323.10492	542.34467	346.15479	-325.31683	508.81967	461.99991	-416.25589	371.95953	311.45700	-410.00870	328.39304	305.94077	-354.27106	377.10233	293.20895	-358.17099	333.48563	291.33765	-360.81863	96.47874	282.94940	-330.45905	107.30055	365.92407	-416.43390	68.57800	332.83475	-221.87399	41.34924	244.82268	-182.14403	67.63766	302.59213	-193.25754	47.01574	350.98981	-424.19302	1077.71375	608.54352	-242.57455	1023.21277	680.50507	-389.12143	704.17145	736.31226	-384.87985	641.69458	728.10706	-314.92834	700.11633	751.21094	-321.68774	638.21356	741.30780	-333.76001	529.66809	711.63696	-341.15952	511.17676	601.04932	-413.99054	374.57996	715.33746	-407.52448	327.19650	709.13660	-352.98523	373.61246	717.45697	-354.64108	327.58786	710.62579	-368.01520	92.24257	654.53406	-346.90466	112.70892	573.93768	-428.76566	67.79845	600.27014	-212.97304	44.70405	568.25562	-192.30768	67.24434	616.25818	-238.68158	33.38189	680.24573
419	1.67200	-425.55569	1064.12952	502.18417	-232.18846	997.71588	450.89188	-372.24454	711.07825	360.92001	-366.65616	648.67114	354.67050	-295.48160	711.63983	355.38452	-299.88745	650.24841	350.55322	-322.73666	542.25519	346.64551	-324.86044	508.76245	462.50543	-415.98151	372.02979	311.75980	-409.82907	328.41760	306.29468	-353.96933	377.15237	293.50589	-357.93655	333.53555	291.60440	-360.80374	96.48481	283.01004	-330.42273	107.26865	365.98450	-416.42072	68.57640	332.90921	-221.86545	41.35948	244.82056	-182.14571	67.59921	302.60229	-193.24063	46.99327	350.99313	-423.81351	1077.61633	609.12695	-242.28113	1023.23041	681.32428	-388.90515	704.12891	736.94666	-384.62720	641.60358	728.69464	-314.72638	700.02313	751.88959	-321.43353	638.13861	741.91766	-333.55017	529.58118	712.17859	-340.96371	511.14838	601.59338	-413.83444	374.50510	715.70331	-407.39249	327.14297	709.46887	-352.89221	373.50510	717.82526	-354.53793	327.45731	710.92834	-367.98932	92.18543	654.59216	-346.86618	112.74203	574.00293	-428.78937	67.81449	600.32178	-212.94783	44.69866	568.27032	-192.31471	67.19175	616.29413	-238.63264	33.33433	680.26874
420	1.67600	-425.03726	1063.84851	502.85587	-231.48141	997.57733	451.73007	-371.58160	711.05389	361.48380	-366.03201	648.62152	355.23233	-294.85953	711.52081	356.05908	-299.19098	650.27283	351.34161	-322.27512	542.18036	347.11432	-324.49905	508.60217	462.96396	-415.71994	372.08844	312.04495	-409.59988	328.40811	306.62375	-353.68607	377.17584	293.80371	-357.70532	333.56662	291.88275	-360.76248	96.49520	283.06195	-330.38330	107.21333	366.06232	-416.40552	68.54971	332.96817	-221.84723	41.35057	244.83505	-182.12161	67.56647	302.62137	-193.22305	46.95109	351.00262	-423.44461	1077.47717	609.73535	-241.92480	1023.29187	682.16656	-388.61975	704.02472	737.52594	-384.31430	641.50720	729.31256	-314.50064	699.91150	752.61511	-321.11591	638.04956	742.51813	-333.35904	529.48022	712.72815	-340.49008	511.23471	601.97479	-413.68253	374.40253	716.09906	-407.23691	327.04703	709.80267	-352.74786	373.37549	718.20203	-354.44339	327.34698	711.27698	-367.96884	92.13229	654.67493	-346.86270	112.75597	574.09137	-428.75592	67.79026	600.37073	-212.95430	44.66505	568.30292	-192.30307	67.14558	616.34137	-238.64116	33.28750	680.29889
421	1.68000	-424.44846	1063.61255	503.37796	-230.84895	997.47516	452.56827	-371.04480	711.00415	362.10443	-365.50363	648.53479	355.80673	-294.23502	711.46185	356.76205	-298.56308	650.22168	351.97198	-321.74081	542.12268	347.54697	-324.11649	508.49643	463.40015	-415.43976	372.16440	312.34503	-409.34976	328.42392	306.92557	-353.38290	377.21219	294.11438	-357.13669	333.74796	291.89743	-360.73630	96.47398	283.10052	-330.37506	107.19025	366.14032	-416.34998	68.50536	333.00348	-221.86079	41.33501	244.86394	-182.13593	67.54669	302.62775	-193.21950	46.93797	350.99319	-422.97919	1077.26819	610.33948	-241.46730	1023.37854	682.90594	-388.25073	703.91168	738.14520	-384.01746	641.51245	729.85571	-314.20493	699.86066	753.20001	-320.92102	637.94739	743.14771	-333.16980	529.44049	713.24701	-340.25937	511.24188	602.48590	-413.53125	374.33081	716.46423	-407.15048	327.00369	710.10242	-352.60016	373.28711	718.53931	-354.28537	327.28058	711.59283	-367.94839	92.08460	654.75439	-346.85837	112.79482	574.16284	-428.65656	67.73325	600.45062	-212.93385	44.67830	568.33398	-192.30368	67.11982	616.37152	-238.64848	33.27034	680.33521
422	1.68400	-423.81412	1063.39661	503.91565	-230.14293	997.41803	453.41409	-370.37445	710.97595	362.78732	-364.82886	648.49451	356.36938	-293.56155	711.38275	357.43106	-297.85898	650.21283	352.56635	-321.25677	542.09113	347.99649	-323.78891	508.37503	463.83667	-415.14185	372.21439	312.67963	-409.11343	328.49536	307.16382	-353.11240	377.24756	294.40887	-356.91656	333.81259	292.13116	-360.71216	96.48569	283.14893	-330.38998	107.14945	366.17029	-416.31104	68.44974	333.03799	-221.84955	41.34748	244.85651	-182.11116	67.57296	302.59338	-193.22173	46.94312	350.96429	-422.45718	1077.10950	610.94220	-241.12131	1023.45483	683.72266	-387.95010	703.80872	738.72388	-383.70810	641.45404	730.39587	-314.05331	699.76251	753.84729	-320.70883	637.89966	743.69025	-333.05032	529.37610	713.69690	-339.88010	511.28931	602.92828	-413.45523	374.29041	716.78851	-407.07059	326.94830	710.38776	-352.49628	373.16690	718.85883	-354.16013	327.20764	711.91449	-367.96759	92.08310	654.79572	-346.86301	112.84968	574.22418	-428.59097	67.69925	600.50916	-212.95355	44.70401	568.34503	-192.26283	67.12394	616.35187	-238.63864	33.26889	680.33887
